# xmcd CD database file
#
# Track frame offsets:
#	215
#	56495
#	117657
#	180297
#	223820
#	255500
#	315305
#
# Disc length: 4680 seconds
#
# Revision: 0
# Processed by: cddbd v1.5.2PL0 Copyright (c) Steve Scherf et al.
# Submitted via: CDex 1.70beta2
#
DISCID=5c124607
DTITLE=Gil Evans - The British Orchestra - The Complete Concert
DYEAR=1983
DGENRE=Jazz
TTITLE0=Jelly Rolls
TTITLE1=Friday The Thirteenth
TTITLE2=London
TTITLE3=Stonefree
TTITLE4=Little Wing
TTITLE5=Gone
TTITLE6=Here Come De Honeyman
EXTD=YEAR: 1983
EXTT0=
EXTT1=
EXTT2=
EXTT3=
EXTT4=
EXTT5=
EXTT6=
PLAYORDER=
